<svg xmlns="http://www.w3.org/2000/svg" viewBox="0 0 64 64" fill="none">
  <circle cx="32" cy="32" r="30" fill="#1c1b18"/>
  <!-- "S" estilizada con un toque de columna/libro -->
  <g fill="#b8864c">
    <path d="M22 18 Q22 14 28 14 L40 14 Q44 14 44 18 L44 22 L36 22 L36 20 Q36 18 34 18 L30 18 Q28 18 28 20 L28 24 Q28 26 30 26 L38 26 Q44 26 44 32 L44 38 Q44 44 38 44 L26 44 Q22 44 22 40 L22 36 L30 36 L30 38 Q30 40 32 40 L36 40 Q38 40 38 38 L38 34 Q38 32 36 32 L28 32 Q22 32 22 26 Z"/>
  </g>
  <!-- Pequeña línea decorativa abajo -->
  <rect x="20" y="48" width="24" height="2" rx="1" fill="#d4a574"/>
</svg>
